<svg width="50" height="50" viewBox="0 0 50 50" fill="none" xmlns="http://www.w3.org/2000/svg">
<path d="M9.53125 9.53124C10.1173 8.9454 10.912 8.61629 11.7406 8.61629C12.5693 8.61629 13.364 8.9454 13.95 9.53124L25 20.5812L36.05 9.53124C36.6394 8.962 37.4288 8.64702 38.2481 8.65414C39.0675 8.66126 39.8513 8.98991 40.4307 9.56931C41.0101 10.1487 41.3387 10.9325 41.3459 11.7519C41.353 12.5712 41.038 13.3606 40.4688 13.95L29.4188 25L40.4688 36.05C41.038 36.6394 41.353 37.4288 41.3459 38.2481C41.3387 39.0675 41.0101 39.8513 40.4307 40.4307C39.8513 41.0101 39.0675 41.3387 38.2481 41.3459C37.4288 41.353 36.6394 41.038 36.05 40.4687L25 29.4187L13.95 40.4687C13.3606 41.038 12.5712 41.353 11.7519 41.3459C10.9325 41.3387 10.1487 41.0101 9.56932 40.4307C8.98992 39.8513 8.66127 39.0675 8.65415 38.2481C8.64703 37.4288 8.96201 36.6394 9.53125 36.05L20.5813 25L9.53125 13.95C8.94541 13.364 8.61629 12.5693 8.61629 11.7406C8.61629 10.912 8.94541 10.1173 9.53125 9.53124V9.53124Z" fill="#F24E1E"/>
</svg>
