<svg width="50" height="50" viewBox="0 0 50 50" fill="none" xmlns="http://www.w3.org/2000/svg">
<path d="M4.16667 12.5C4.16667 11.9475 4.38616 11.4176 4.77686 11.0269C5.16756 10.6362 5.69747 10.4167 6.25 10.4167H43.75C44.3025 10.4167 44.8324 10.6362 45.2231 11.0269C45.6138 11.4176 45.8333 11.9475 45.8333 12.5C45.8333 13.0525 45.6138 13.5824 45.2231 13.9731C44.8324 14.3638 44.3025 14.5833 43.75 14.5833H6.25C5.69747 14.5833 5.16756 14.3638 4.77686 13.9731C4.38616 13.5824 4.16667 13.0525 4.16667 12.5V12.5ZM4.16667 25.0667C4.16667 24.5141 4.38616 23.9842 4.77686 23.5935C5.16756 23.2028 5.69747 22.9833 6.25 22.9833H43.75C44.3025 22.9833 44.8324 23.2028 45.2231 23.5935C45.6138 23.9842 45.8333 24.5141 45.8333 25.0667C45.8333 25.6192 45.6138 26.1491 45.2231 26.5398C44.8324 26.9305 44.3025 27.15 43.75 27.15H6.25C5.69747 27.15 5.16756 26.9305 4.77686 26.5398C4.38616 26.1491 4.16667 25.6192 4.16667 25.0667V25.0667ZM6.25 35.55C5.69747 35.55 5.16756 35.7695 4.77686 36.1602C4.38616 36.5509 4.16667 37.0808 4.16667 37.6333C4.16667 38.1859 4.38616 38.7158 4.77686 39.1065C5.16756 39.4972 5.69747 39.7167 6.25 39.7167H43.75C44.3025 39.7167 44.8324 39.4972 45.2231 39.1065C45.6138 38.7158 45.8333 38.1859 45.8333 37.6333C45.8333 37.0808 45.6138 36.5509 45.2231 36.1602C44.8324 35.7695 44.3025 35.55 43.75 35.55H6.25Z" fill="#F24E1E"/>
</svg>
